<?xml version="1.0" encoding="utf-8"?>
<!-- Generator: Adobe Illustrator 26.0.2, SVG Export Plug-In . SVG Version: 6.00 Build 0)  -->
<svg version="1.1" id="Object" xmlns="http://www.w3.org/2000/svg" xmlns:xlink="http://www.w3.org/1999/xlink" x="0px" y="0px"
	 viewBox="0 0 592.94 598.02" style="enable-background:new 0 0 592.94 598.02;" xml:space="preserve">
<style type="text/css">
	.st0{fill:#E4B987;}
	.st1{fill:#DAA56A;}
	.st2{fill:#D77C9C;}
	.st3{fill:#D0527F;}
	.st4{fill:#CD4176;}
	.st5{fill:#D36A99;}
	.st6{fill:#A1C6D9;}
	.st7{fill:#F4D331;}
	.st8{fill:#C72B2C;}
</style>
<g>
	<g id="XMLID_12660_">
		<path id="XMLID_12661_" class="st0" d="M557.93,261.16c-0.2-1.03-0.4-2.07-0.61-3.1c-1.49,0.37-2.99,0.67-4.51,0.91
			c-8.06,1.28-16.53,0.7-24.79-2.1c-27.37-9.27-53.76-39.16-44.41-66.75c1.32-3.9-2.83-7.53-0.76-10.88
			c-6.84,0.55-13.89-0.26-20.79-2.59c-16.3-5.52-28.06-18.35-32.94-33.65c-2.21-6.91-3.01-14.33-2.19-21.8
			c-9.66,10.1-10.48,16.63-23.85,18.43c-8.35,1.12-16.99,0.41-25.41-2.44c-30.73-10.41-46.69-45.28-35.64-77.88
			c0.81-2.4,1.77-4.71,2.82-6.94c0.05-0.1,0.09-0.2,0.14-0.31C216.65,26.01,91.82,98.84,48.7,226.12
			C1.92,364.18,75.91,514.02,213.98,560.8c20.23,6.85,40.7,11.1,61.07,12.94c118.68,10.76,233.68-60.39,273.61-178.22
			C563.86,350.66,566.29,304.57,557.93,261.16z M382,339.06c-12.13,35.79-45.03,58.66-80.7,59.73c-10.2,0.31-20.63-1.17-30.86-4.63
			c-46.02-15.59-70.69-65.54-55.09-111.56s65.54-70.69,111.56-55.09c0.07,0.02,0.13,0.05,0.2,0.07
			C373,243.24,397.58,293.1,382,339.06z"/>
	</g>
	<path class="st1" d="M560.52,277.35C485.71,390.5,363.64,515.86,179.87,546.53c10.88,5.46,22.25,10.26,34.1,14.28
		c20.23,6.85,40.7,11.1,61.07,12.94c118.68,10.76,233.68-60.39,273.61-178.22C561.98,356.2,565.49,315.93,560.52,277.35z"/>
	<g id="XMLID_12651_">
		<path id="XMLID_12658_" class="st2" d="M559.96,231.36c-1.49,0.37-2.99,0.67-4.51,0.91c1.65,0.81,3.36,1.54,5.12,2.18
			C560.37,233.42,560.17,232.39,559.96,231.36z"/>
		<g id="XMLID_12654_">
			<path id="XMLID_12655_" class="st3" d="M560.57,234.45c-1.76-0.64-3.47-1.37-5.12-2.18c-8.06,1.28-16.53,0.7-24.79-2.1
				c-27.37-9.27-41.98-39.16-32.63-66.75c1.32-3.9,3.06-7.53,5.13-10.88c-6.84,0.55-13.89-0.26-20.79-2.59
				c-16.3-5.52-28.06-18.35-32.94-33.65c-2.21-6.91-3.01-14.33-2.19-21.8c-9.66,10.1-22.26,16.63-35.63,18.43
				c-8.35,1.12-16.99,0.41-25.41-2.44c-30.73-10.41-46.69-45.28-35.64-77.88c0.81-2.4,1.77-4.71,2.82-6.94
				C235.63,16.18,122.02,87.15,82.39,204.12c-46.78,138.06,27.22,287.9,165.28,334.68c9.96,3.37,235.41,53.56,303.63-169.98
				C565.12,323.51,568.93,277.86,560.57,234.45z M384.64,312.35c-12.13,35.79-45.03,58.66-80.7,59.73
				c-10.2,0.31-20.63-1.17-30.86-4.63c-46.02-15.59-70.69-65.54-55.09-111.56c15.59-46.02,65.54-70.69,111.56-55.09
				c0.07,0.02,0.13,0.05,0.2,0.07C375.64,216.53,400.21,266.4,384.64,312.35z"/>
		</g>
	</g>
	<path id="XMLID_20_" class="st2" d="M559.96,231.36c-1.49,0.37-2.99,0.67-4.51,0.91c1.65,0.81,3.36,1.54,5.12,2.18
		C560.37,233.42,560.17,232.39,559.96,231.36z"/>
	<path class="st4" d="M564.72,270.93C497.86,374.08,391.6,489.14,234.87,534.1c4.2,1.67,8.47,3.24,12.8,4.7
		c9.96,3.37,235.41,53.56,303.63-169.98C561.3,336.04,566.02,303.09,564.72,270.93z"/>
	<path class="st5" d="M329.49,77.31V51.45c-1.88-0.05-3.77-0.1-5.66-0.1c-127.47,0-230.8,103.33-230.8,230.8
		c0,52.96,17.85,101.75,47.85,140.69c-19.51-33.86-30.67-73.15-30.67-115.03C110.21,184.2,207.37,83.32,329.49,77.31z"/>
	
		<rect x="165.64" y="346.83" transform="matrix(0.9237 -0.3832 0.3832 0.9237 -128.1314 94.3462)" class="st6" width="14.23" height="43.94"/>
	
		<rect x="404.83" y="126.95" transform="matrix(0.087 -0.9962 0.9962 0.087 227.7526 546.3553)" class="st6" width="14.23" height="43.94"/>
	
		<rect x="128.4" y="230.92" transform="matrix(0.8463 -0.5327 0.5327 0.8463 -103.6876 116.6813)" class="st7" width="43.94" height="14.23"/>
	
		<rect x="479.33" y="346.83" transform="matrix(0.3894 -0.9211 0.9211 0.3894 -42.6797 673.2211)" class="st6" width="14.23" height="43.94"/>
	
		<rect x="257.34" y="101.09" transform="matrix(0.4841 -0.875 0.875 0.4841 28.7531 294.893)" class="st8" width="14.23" height="43.94"/>
	
		<rect x="399.51" y="428.07" transform="matrix(0.7236 -0.6903 0.6903 0.7236 -198.2382 405.0883)" class="st7" width="14.23" height="43.94"/>
	
		<rect x="242.49" y="446.01" transform="matrix(0.8463 -0.5327 0.5327 0.8463 -200.726 210.5047)" class="st8" width="43.94" height="14.23"/>
	
		<rect x="452.54" y="260.53" transform="matrix(0.8463 -0.5327 0.5327 0.8463 -69.6435 293.8911)" class="st7" width="43.94" height="14.23"/>
</g>
</svg>
