<?xml version="1.0" encoding="utf-8"?>
<!-- Generator: Adobe Illustrator 26.0.2, SVG Export Plug-In . SVG Version: 6.00 Build 0)  -->
<svg version="1.1" id="OBJECTS" xmlns="http://www.w3.org/2000/svg" xmlns:xlink="http://www.w3.org/1999/xlink" x="0px" y="0px"
	 viewBox="0 0 231.25 232.09" style="enable-background:new 0 0 231.25 232.09;" xml:space="preserve">
<style type="text/css">
	.st0{opacity:0.5;}
	.st1{fill:#B6E3F6;stroke:#B6E3F6;stroke-width:0.8;stroke-linecap:round;stroke-linejoin:round;stroke-miterlimit:10;}
	.st2{fill:#C5DA8B;stroke:#813E38;stroke-width:0.8;stroke-linecap:round;stroke-linejoin:round;stroke-miterlimit:10;}
	.st3{clip-path:url(#XMLID_00000031176633125410262220000004650865356824980640_);fill:#C5DA8B;}
	.st4{fill:#813E38;}
	.st5{fill:#FFFFFF;}
	.st6{fill:#C5DA8B;}
	.st7{fill:#FDBDBD;}
	.st8{fill:#AABC68;stroke:#813E38;stroke-width:0.8;stroke-linecap:round;stroke-linejoin:round;stroke-miterlimit:10;}
	.st9{fill:none;stroke:#813E38;stroke-width:0.8;stroke-linecap:round;stroke-linejoin:round;stroke-miterlimit:10;}
	.st10{clip-path:url(#XMLID_00000098911819098369361570000005159817391426868406_);fill:#FF666D;}
</style>
<g>
	<g>
		<g class="st0">
			<path class="st1" d="M13.94,165.82c0-17.84,45.92-32.3,102.57-32.3c56.65,0,102.57,14.46,102.57,32.3s-45.92,32.3-102.57,32.3
				l-4.13-19.46l-18.86,18.65C47.95,194.02,13.94,181.17,13.94,165.82z"/>
		</g>
		<g>
			<g>
				<path class="st2" d="M15.19,162.08c0-17.84,45.92-32.3,102.57-32.3c56.65,0,102.57,14.46,102.57,32.3
					c0,17.84-45.92,32.3-102.57,32.3l-4.13-19.46l-18.85,18.65C49.2,190.28,15.19,177.43,15.19,162.08z"/>
			</g>
		</g>
	</g>
	<g>
		<g>
			<defs>
				<path id="XMLID_46_" d="M189.01,120.31c-1.78-8.91-7.93-11.05-13.42-11.06c0.03-0.75,0.05-1.51,0.05-2.28
					c0-12.26-3.69-23.66-10-33.17c-3.13-5.81-6.66-9.1-9.48-11.89c2.63-2.74,4.03-6.66,3.29-10.89c-0.89-5.1-5-9.21-10.1-10.09
					c-6.79-1.17-12.78,3.15-14.33,9.24c-6.09-2.08-12.61-3.22-19.4-3.22c-6.79,0-13.31,1.14-19.4,3.22
					c-1.55-6.09-7.54-10.41-14.34-9.24c-5.11,0.88-9.22,4.99-10.1,10.09c-0.74,4.23,0.67,8.15,3.3,10.89
					c-2.82,2.79-6.35,6.08-9.48,11.89c-6.31,9.5-10,20.9-10,33.17c0,0.77,0.02,1.53,0.05,2.28c-5.49,0.01-11.64,2.15-13.42,11.06
					c-2.71,13.57,10.34,24.05,15.87,27.82l-0.89,0.83c0,0-4.16,4.02-2.15,5.63c0.82,0.66,1.79,0.5,2.65,0.08
					c0.66-0.32,1.42,0.26,1.25,0.98c-0.29,1.31-0.26,2.71,0.92,3.32c1,0.51,1.94,0.14,2.7-0.5c0.57-0.47,1.43-0.11,1.45,0.63
					c0.04,1.35,0.46,2.68,1.92,2.94c1.37,0.24,2.13-0.74,2.55-1.91c0.25-0.68,1.17-0.85,1.56-0.24c0.5,0.78,1.23,1.36,2.28,1.22
					c0.49-0.07,0.89-0.89,1.19-1.97c0.3-1.05,0.47-2.12,0.52-3.2c0.12-2.53-0.53-5.04-1.64-7.32l-2.83-5.83c0,0,5.93,5.57,14.26,8.3
					c6.03,2.54,12.71,4.24,19.58,5.15c0.08,0.01,0.16,0.02,0.25,0.03c0.76,0.1,1.51,0.19,2.27,0.27c0.35,0.04,0.7,0.07,1.05,0.1
					c0.54,0.05,1.09,0.09,1.64,0.14c0.43,0.03,0.86,0.07,1.29,0.09c0.56,0.03,1.11,0.06,1.67,0.08c0.39,0.02,0.77,0.04,1.16,0.05
					c0.95,0.03,1.9,0.05,2.85,0.05c0,0,0,0,0,0c0.95,0,1.9-0.02,2.85-0.05c0.39-0.01,0.78-0.03,1.16-0.05
					c0.56-0.02,1.11-0.05,1.67-0.08c0.43-0.03,0.86-0.06,1.29-0.09c0.55-0.04,1.09-0.08,1.64-0.14c0.35-0.03,0.7-0.07,1.04-0.1
					c0.76-0.08,1.52-0.17,2.28-0.27c0.08-0.01,0.16-0.02,0.24-0.03c6.87-0.91,13.55-2.61,19.59-5.15c8.34-2.74,14.26-8.3,14.26-8.3
					l-2.83,5.83c-1.11,2.28-1.76,4.79-1.64,7.32c0.05,1.08,0.22,2.15,0.52,3.2c0.31,1.08,0.7,1.9,1.19,1.97
					c1.05,0.14,1.78-0.44,2.28-1.22c0.39-0.61,1.32-0.44,1.56,0.24c0.42,1.17,1.18,2.15,2.55,1.91c1.45-0.25,1.88-1.57,1.92-2.91
					c0.02-0.74,0.88-1.13,1.45-0.65c0.85,0.7,1.91,1.09,3.04,0.28c0.93-0.66,1.05-1.89,0.62-2.95c-0.32-0.79,0.48-1.49,1.2-1.14
					c0.87,0.42,1.84,0.58,2.66-0.08c2-1.61-2.15-5.63-2.15-5.63l-0.89-0.83C178.67,144.36,191.72,133.88,189.01,120.31z"/>
			</defs>
			<use xlink:href="#XMLID_46_"  style="overflow:visible;fill:#AABC68;"/>
			<clipPath id="XMLID_00000021081201646681883880000014280876722158000299_">
				<use xlink:href="#XMLID_46_"  style="overflow:visible;"/>
			</clipPath>
			
				<circle style="clip-path:url(#XMLID_00000021081201646681883880000014280876722158000299_);fill:#C5DA8B;" cx="58.2" cy="89.45" r="13.21"/>
			
				<circle style="clip-path:url(#XMLID_00000021081201646681883880000014280876722158000299_);fill:#C5DA8B;" cx="115.62" cy="40.74" r="13.21"/>
			
				<ellipse transform="matrix(0.9999 -0.0152 0.0152 0.9999 -1.3813 2.5565)" style="clip-path:url(#XMLID_00000021081201646681883880000014280876722158000299_);fill:#C5DA8B;" cx="167.4" cy="92.1" rx="13.21" ry="13.21"/>
			<path style="clip-path:url(#XMLID_00000021081201646681883880000014280876722158000299_);fill:#C5DA8B;" d="M73.68,80.22
				c0,2.7,2.19,4.89,4.89,4.89c2.7,0,4.89-2.19,4.89-4.89c0-2.7-2.19-4.89-4.89-4.89C75.87,75.33,73.68,77.52,73.68,80.22z"/>
			<path style="clip-path:url(#XMLID_00000021081201646681883880000014280876722158000299_);fill:#C5DA8B;" d="M139.83,90.38
				c0,2.7,2.19,4.89,4.89,4.89c2.7,0,4.89-2.19,4.89-4.89c0-2.7-2.19-4.89-4.89-4.89C142.02,85.48,139.83,87.67,139.83,90.38z"/>
			<path style="clip-path:url(#XMLID_00000021081201646681883880000014280876722158000299_);fill:#C5DA8B;" d="M145.65,77.22
				c0,2.7,2.19,4.89,4.89,4.89c2.7,0,4.89-2.19,4.89-4.89c0-2.7-2.19-4.89-4.89-4.89C147.84,72.32,145.65,74.51,145.65,77.22z"/>
			
				<use xlink:href="#XMLID_46_"  style="overflow:visible;fill:none;stroke:#813E38;stroke-width:0.8;stroke-linecap:round;stroke-linejoin:round;stroke-miterlimit:10;"/>
		</g>
		<path class="st4" d="M77.72,53.26c0,3.52,2.86,6.38,6.38,6.38c3.52,0,6.38-2.86,6.38-6.38s-2.86-6.38-6.38-6.38
			C80.58,46.87,77.72,49.73,77.72,53.26z"/>
		<path class="st5" d="M80.14,51.69c0,1.14,0.92,2.06,2.06,2.06c1.14,0,2.06-0.92,2.06-2.06c0-1.14-0.92-2.06-2.06-2.06
			C81.06,49.64,80.14,50.56,80.14,51.69z"/>
		<path class="st4" d="M140.76,53.26c0,3.52,2.86,6.38,6.38,6.38s6.38-2.86,6.38-6.38s-2.86-6.38-6.38-6.38
			S140.76,49.73,140.76,53.26z"/>
		<path class="st5" d="M143.18,51.69c0,1.14,0.92,2.06,2.06,2.06c1.14,0,2.06-0.92,2.06-2.06c0-1.14-0.92-2.06-2.06-2.06
			C144.1,49.64,143.18,50.56,143.18,51.69z"/>
		<path class="st6" d="M73.91,122.25c0,16.76,18.67,30.34,41.71,30.34s41.71-13.58,41.71-30.34c0-16.76-18.67-20.84-41.71-20.84
			S73.91,105.49,73.91,122.25z"/>
		<g>
			<path class="st7" d="M79.92,64.5c0,1.85,2.95,3.36,6.6,3.36s6.6-1.5,6.6-3.36c0-1.85-2.95-3.36-6.6-3.36S79.92,62.65,79.92,64.5z
				"/>
			<path class="st7" d="M138.13,64.5c0,1.85,2.95,3.36,6.6,3.36s6.6-1.5,6.6-3.36c0-1.85-2.95-3.36-6.6-3.36
				S138.13,62.65,138.13,64.5z"/>
		</g>
		<path class="st8" d="M63.4,114.95l19.57,46.46l-0.22,0.2c0,0-3.54,3.42-1.83,4.8c0.7,0.56,1.53,0.42,2.27,0.07
			c0.57-0.28,1.2,0.22,1.06,0.84c-0.25,1.11-0.23,2.31,0.78,2.83c0.85,0.44,1.65,0.12,2.3-0.42c0.49-0.41,1.22-0.08,1.24,0.56
			c0.03,1.14,0.39,2.27,1.63,2.48c1.17,0.2,1.82-0.63,2.18-1.63c0.21-0.57,1.01-0.68,1.34-0.18c0.43,0.65,1.05,1.14,1.93,1.02
			c0.42-0.06,0.76-0.76,1.02-1.67c0.46-1.62,0.55-3.3,0.35-4.96l0,0l-6.85-64.53"/>
		<path class="st8" d="M167.4,114.95l-19.57,46.46l0.22,0.2c0,0,3.54,3.42,1.83,4.8c-0.7,0.56-1.53,0.42-2.27,0.07
			c-0.57-0.28-1.2,0.22-1.06,0.84c0.25,1.11,0.23,2.31-0.78,2.83c-0.85,0.44-1.65,0.12-2.3-0.42c-0.49-0.41-1.22-0.08-1.24,0.56
			c-0.03,1.14-0.4,2.27-1.63,2.48c-1.17,0.2-1.82-0.63-2.18-1.63c-0.21-0.57-1.01-0.68-1.34-0.18c-0.43,0.65-1.05,1.14-1.93,1.02
			c-0.42-0.06-0.76-0.76-1.02-1.67c-0.46-1.62-0.55-3.3-0.35-4.96l0,0l6.85-64.65"/>
		<path class="st9" d="M54.68,120.54c0,0,2.14,11.51,14.92,22.26"/>
		<path class="st9" d="M176.59,120.54c0,0-2.14,11.51-14.92,22.26"/>
		<path class="st4" d="M111.34,51.69c0,0.39,0.31,0.7,0.7,0.7c0.39,0,0.7-0.31,0.7-0.7c0-0.39-0.31-0.7-0.7-0.7
			C111.65,51,111.34,51.31,111.34,51.69z"/>
		<path class="st4" d="M118.51,51.69c0,0.39,0.31,0.7,0.7,0.7c0.39,0,0.7-0.31,0.7-0.7c0-0.39-0.31-0.7-0.7-0.7
			C118.82,51,118.51,51.31,118.51,51.69z"/>
		<g>
			<defs>
				<path id="XMLID_56_" d="M105.66,66.04c0,5.5,4.46,7.19,9.96,7.19c5.5,0,9.96-1.69,9.96-7.19s-4.46-9.96-9.96-9.96
					C110.12,56.08,105.66,60.54,105.66,66.04z"/>
			</defs>
			<use xlink:href="#XMLID_56_"  style="overflow:visible;fill:#FFA7AD;"/>
			<clipPath id="XMLID_00000141436826964978886080000015765860995610729107_">
				<use xlink:href="#XMLID_56_"  style="overflow:visible;"/>
			</clipPath>
			<path style="clip-path:url(#XMLID_00000141436826964978886080000015765860995610729107_);fill:#FF666D;" d="M102.22,67.86
				c0,0,12.06-5.28,27.66,0c0,5.89,0,7.1,0,7.1h-27.66V67.86z"/>
			
				<use xlink:href="#XMLID_56_"  style="overflow:visible;fill:none;stroke:#813E38;stroke-width:0.8;stroke-linecap:round;stroke-linejoin:round;stroke-miterlimit:10;"/>
		</g>
	</g>
</g>
</svg>
