<?xml version="1.0" encoding="utf-8"?>
<!-- Generator: Adobe Illustrator 26.0.2, SVG Export Plug-In . SVG Version: 6.00 Build 0)  -->
<svg version="1.1" id="OBJECTS" xmlns="http://www.w3.org/2000/svg" xmlns:xlink="http://www.w3.org/1999/xlink" x="0px" y="0px"
	 viewBox="0 0 231.2 232.1" style="enable-background:new 0 0 231.2 232.1;" xml:space="preserve">
<style type="text/css">
	.st0{fill:#AABC68;}
	.st1{clip-path:url(#SVGID_00000098932284318900623830000017762946578829414044_);fill:#C5DA8B;}
	.st2{clip-path:url(#SVGID_00000004510770454213745090000001529139352189577106_);fill:#C5DA8B;}
	.st3{clip-path:url(#SVGID_00000034790063704127392550000008610085649226894508_);fill:#C5DA8B;}
	.st4{clip-path:url(#SVGID_00000136383161911222584940000008875751656098645126_);fill:#C5DA8B;}
	.st5{clip-path:url(#SVGID_00000044160492576650694670000014320333864576407473_);fill:#C5DA8B;}
	.st6{clip-path:url(#SVGID_00000145057108613073690190000014818055660646360718_);fill:#C5DA8B;}
	.st7{fill:none;stroke:#813E38;stroke-width:0.8;stroke-linecap:round;stroke-linejoin:round;stroke-miterlimit:10;}
	.st8{fill:#813E38;}
	.st9{fill:#FFFFFF;}
	.st10{fill:#C5DA8B;}
	.st11{fill:#FDBDBD;}
	.st12{fill:#AABC68;stroke:#813E38;stroke-width:0.8;stroke-linecap:round;stroke-linejoin:round;stroke-miterlimit:10;}
	.st13{fill:#FFA7AD;}
	.st14{clip-path:url(#SVGID_00000026151580258855616030000017751840723127663287_);fill:#FF666D;}
</style>
<g>
	<g>
		<g>
			<g>
				<path id="XMLID_46_" class="st0" d="M189,120.3c-1.8-8.9-7.9-11.1-13.4-11.1c0-0.8,0.1-1.5,0.1-2.3c0-12.3-3.7-23.7-10-33.2
					c-3.1-5.8-6.7-9.1-9.5-11.9c2.6-2.7,4-6.7,3.3-10.9c-0.9-5.1-5-9.2-10.1-10.1c-6.8-1.2-12.8,3.2-14.3,9.2
					c-6.1-2.1-12.6-3.2-19.4-3.2s-13.3,1.1-19.4,3.2c-1.6-6.1-7.5-10.4-14.3-9.2c-5.1,0.9-9.2,5-10.1,10.1
					c-0.7,4.2,0.7,8.1,3.3,10.9c-2.8,2.8-6.3,6.1-9.5,11.9c-6.3,9.5-10,20.9-10,33.2c0,0.8,0,1.5,0,2.3c-5.5,0-11.6,2.2-13.4,11.1
					c-2.7,13.6,10.3,24,15.9,27.8l-0.9,0.8c0,0-4.2,4-2.2,5.6c0.8,0.7,1.8,0.5,2.7,0.1c0.7-0.3,1.4,0.3,1.2,1
					c-0.3,1.3-0.3,2.7,0.9,3.3c1,0.5,1.9,0.1,2.7-0.5c0.6-0.5,1.4-0.1,1.4,0.6c0,1.4,0.5,2.7,1.9,2.9c1.4,0.2,2.1-0.7,2.6-1.9
					c0.2-0.7,1.2-0.9,1.6-0.2c0.5,0.8,1.2,1.4,2.3,1.2c0.5-0.1,0.9-0.9,1.2-2c0.3-1.1,0.5-2.1,0.5-3.2c0.1-2.5-0.5-5-1.6-7.3
					l-2.8-5.8c0,0,5.9,5.6,14.3,8.3c6,2.5,12.7,4.2,19.6,5.1c0.1,0,0.2,0,0.2,0c0.8,0.1,1.5,0.2,2.3,0.3c0.3,0,0.7,0.1,1.1,0.1
					c0.5,0.1,1.1,0.1,1.6,0.1c0.4,0,0.9,0.1,1.3,0.1c0.6,0,1.1,0.1,1.7,0.1c0.4,0,0.8,0,1.2,0.1c0.9,0,1.9,0.1,2.8,0.1l0,0
					c0.9,0,1.9,0,2.8-0.1c0.4,0,0.8,0,1.2-0.1c0.6,0,1.1-0.1,1.7-0.1c0.4,0,0.9-0.1,1.3-0.1c0.6,0,1.1-0.1,1.6-0.1
					c0.3,0,0.7-0.1,1-0.1c0.8-0.1,1.5-0.2,2.3-0.3c0.1,0,0.2,0,0.2,0c6.9-0.9,13.5-2.6,19.6-5.1c8.3-2.7,14.3-8.3,14.3-8.3l-2.8,5.8
					c-1.1,2.3-1.8,4.8-1.6,7.3c0.1,1.1,0.2,2.1,0.5,3.2c0.3,1.1,0.7,1.9,1.2,2c1.1,0.1,1.8-0.4,2.3-1.2c0.4-0.6,1.3-0.4,1.6,0.2
					c0.4,1.2,1.2,2.1,2.6,1.9c1.4-0.2,1.9-1.6,1.9-2.9c0-0.7,0.9-1.1,1.4-0.6c0.9,0.7,1.9,1.1,3,0.3c0.9-0.7,1.1-1.9,0.6-2.9
					c-0.3-0.8,0.5-1.5,1.2-1.1c0.9,0.4,1.8,0.6,2.7-0.1c2-1.6-2.1-5.6-2.1-5.6l-0.9-0.8C178.7,144.4,191.7,133.9,189,120.3z"/>
			</g>
			<g>
				<defs>
					<path id="SVGID_1_" d="M189,120.3c-1.8-8.9-7.9-11.1-13.4-11.1c0-0.8,0.1-1.5,0.1-2.3c0-12.3-3.7-23.7-10-33.2
						c-3.1-5.8-6.7-9.1-9.5-11.9c2.6-2.7,4-6.7,3.3-10.9c-0.9-5.1-5-9.2-10.1-10.1c-6.8-1.2-12.8,3.2-14.3,9.2
						c-6.1-2.1-12.6-3.2-19.4-3.2s-13.3,1.1-19.4,3.2c-1.6-6.1-7.5-10.4-14.3-9.2c-5.1,0.9-9.2,5-10.1,10.1
						c-0.7,4.2,0.7,8.1,3.3,10.9c-2.8,2.8-6.3,6.1-9.5,11.9c-6.3,9.5-10,20.9-10,33.2c0,0.8,0,1.5,0,2.3c-5.5,0-11.6,2.2-13.4,11.1
						c-2.7,13.6,10.3,24,15.9,27.8l-0.9,0.8c0,0-4.2,4-2.2,5.6c0.8,0.7,1.8,0.5,2.7,0.1c0.7-0.3,1.4,0.3,1.2,1
						c-0.3,1.3-0.3,2.7,0.9,3.3c1,0.5,1.9,0.1,2.7-0.5c0.6-0.5,1.4-0.1,1.4,0.6c0,1.4,0.5,2.7,1.9,2.9c1.4,0.2,2.1-0.7,2.6-1.9
						c0.2-0.7,1.2-0.9,1.6-0.2c0.5,0.8,1.2,1.4,2.3,1.2c0.5-0.1,0.9-0.9,1.2-2c0.3-1.1,0.5-2.1,0.5-3.2c0.1-2.5-0.5-5-1.6-7.3
						l-2.8-5.8c0,0,5.9,5.6,14.3,8.3c6,2.5,12.7,4.2,19.6,5.1c0.1,0,0.2,0,0.2,0c0.8,0.1,1.5,0.2,2.3,0.3c0.3,0,0.7,0.1,1.1,0.1
						c0.5,0.1,1.1,0.1,1.6,0.1c0.4,0,0.9,0.1,1.3,0.1c0.6,0,1.1,0.1,1.7,0.1c0.4,0,0.8,0,1.2,0.1c0.9,0,1.9,0.1,2.8,0.1l0,0
						c0.9,0,1.9,0,2.8-0.1c0.4,0,0.8,0,1.2-0.1c0.6,0,1.1-0.1,1.7-0.1c0.4,0,0.9-0.1,1.3-0.1c0.6,0,1.1-0.1,1.6-0.1
						c0.3,0,0.7-0.1,1-0.1c0.8-0.1,1.5-0.2,2.3-0.3c0.1,0,0.2,0,0.2,0c6.9-0.9,13.5-2.6,19.6-5.1c8.3-2.7,14.3-8.3,14.3-8.3
						l-2.8,5.8c-1.1,2.3-1.8,4.8-1.6,7.3c0.1,1.1,0.2,2.1,0.5,3.2c0.3,1.1,0.7,1.9,1.2,2c1.1,0.1,1.8-0.4,2.3-1.2
						c0.4-0.6,1.3-0.4,1.6,0.2c0.4,1.2,1.2,2.1,2.6,1.9c1.4-0.2,1.9-1.6,1.9-2.9c0-0.7,0.9-1.1,1.4-0.6c0.9,0.7,1.9,1.1,3,0.3
						c0.9-0.7,1.1-1.9,0.6-2.9c-0.3-0.8,0.5-1.5,1.2-1.1c0.9,0.4,1.8,0.6,2.7-0.1c2-1.6-2.1-5.6-2.1-5.6l-0.9-0.8
						C178.7,144.4,191.7,133.9,189,120.3z"/>
				</defs>
				<clipPath id="SVGID_00000141418009806920617310000007346308815045559464_">
					<use xlink:href="#SVGID_1_"  style="overflow:visible;"/>
				</clipPath>
				
					<circle style="clip-path:url(#SVGID_00000141418009806920617310000007346308815045559464_);fill:#C5DA8B;" cx="58.2" cy="89.4" r="13.2"/>
			</g>
			<g>
				<defs>
					<path id="SVGID_00000117663704460355954290000001765713419782591917_" d="M189,120.3c-1.8-8.9-7.9-11.1-13.4-11.1
						c0-0.8,0.1-1.5,0.1-2.3c0-12.3-3.7-23.7-10-33.2c-3.1-5.8-6.7-9.1-9.5-11.9c2.6-2.7,4-6.7,3.3-10.9c-0.9-5.1-5-9.2-10.1-10.1
						c-6.8-1.2-12.8,3.2-14.3,9.2c-6.1-2.1-12.6-3.2-19.4-3.2s-13.3,1.1-19.4,3.2c-1.6-6.1-7.5-10.4-14.3-9.2
						c-5.1,0.9-9.2,5-10.1,10.1c-0.7,4.2,0.7,8.1,3.3,10.9c-2.8,2.8-6.3,6.1-9.5,11.9c-6.3,9.5-10,20.9-10,33.2c0,0.8,0,1.5,0,2.3
						c-5.5,0-11.6,2.2-13.4,11.1c-2.7,13.6,10.3,24,15.9,27.8l-0.9,0.8c0,0-4.2,4-2.2,5.6c0.8,0.7,1.8,0.5,2.7,0.1
						c0.7-0.3,1.4,0.3,1.2,1c-0.3,1.3-0.3,2.7,0.9,3.3c1,0.5,1.9,0.1,2.7-0.5c0.6-0.5,1.4-0.1,1.4,0.6c0,1.4,0.5,2.7,1.9,2.9
						c1.4,0.2,2.1-0.7,2.6-1.9c0.2-0.7,1.2-0.9,1.6-0.2c0.5,0.8,1.2,1.4,2.3,1.2c0.5-0.1,0.9-0.9,1.2-2c0.3-1.1,0.5-2.1,0.5-3.2
						c0.1-2.5-0.5-5-1.6-7.3l-2.8-5.8c0,0,5.9,5.6,14.3,8.3c6,2.5,12.7,4.2,19.6,5.1c0.1,0,0.2,0,0.2,0c0.8,0.1,1.5,0.2,2.3,0.3
						c0.3,0,0.7,0.1,1.1,0.1c0.5,0.1,1.1,0.1,1.6,0.1c0.4,0,0.9,0.1,1.3,0.1c0.6,0,1.1,0.1,1.7,0.1c0.4,0,0.8,0,1.2,0.1
						c0.9,0,1.9,0.1,2.8,0.1l0,0c0.9,0,1.9,0,2.8-0.1c0.4,0,0.8,0,1.2-0.1c0.6,0,1.1-0.1,1.7-0.1c0.4,0,0.9-0.1,1.3-0.1
						c0.6,0,1.1-0.1,1.6-0.1c0.3,0,0.7-0.1,1-0.1c0.8-0.1,1.5-0.2,2.3-0.3c0.1,0,0.2,0,0.2,0c6.9-0.9,13.5-2.6,19.6-5.1
						c8.3-2.7,14.3-8.3,14.3-8.3l-2.8,5.8c-1.1,2.3-1.8,4.8-1.6,7.3c0.1,1.1,0.2,2.1,0.5,3.2c0.3,1.1,0.7,1.9,1.2,2
						c1.1,0.1,1.8-0.4,2.3-1.2c0.4-0.6,1.3-0.4,1.6,0.2c0.4,1.2,1.2,2.1,2.6,1.9c1.4-0.2,1.9-1.6,1.9-2.9c0-0.7,0.9-1.1,1.4-0.6
						c0.9,0.7,1.9,1.1,3,0.3c0.9-0.7,1.1-1.9,0.6-2.9c-0.3-0.8,0.5-1.5,1.2-1.1c0.9,0.4,1.8,0.6,2.7-0.1c2-1.6-2.1-5.6-2.1-5.6
						l-0.9-0.8C178.7,144.4,191.7,133.9,189,120.3z"/>
				</defs>
				<clipPath id="SVGID_00000105414061994707399370000010300349247378129588_">
					<use xlink:href="#SVGID_00000117663704460355954290000001765713419782591917_"  style="overflow:visible;"/>
				</clipPath>
				
					<circle style="clip-path:url(#SVGID_00000105414061994707399370000010300349247378129588_);fill:#C5DA8B;" cx="115.6" cy="40.7" r="13.2"/>
			</g>
			<g>
				<defs>
					<path id="SVGID_00000065070050946497052870000016321063019530688392_" d="M189.4,120c-1.9-8.9-8.1-10.9-13.6-10.9
						c0-0.8,0-1.5,0-2.3c-0.2-12.3-4-23.6-10.5-33c-3.2-5.8-6.8-9-9.7-11.7c2.6-2.8,3.9-6.7,3.1-10.9c-1-5.1-5.1-9.1-10.3-9.9
						c-6.8-1.1-12.7,3.3-14.2,9.5c-6.1-2-12.7-3-19.4-2.9s-13.3,1.3-19.3,3.5c-1.6-6.1-7.7-10.3-14.5-9c-5.1,1-9.1,5.1-9.9,10.2
						c-0.7,4.2,0.8,8.1,3.5,10.8c-2.8,2.8-6.3,6.2-9.3,12c-6.2,9.6-9.7,21-9.5,33.3c0,0.8,0,1.5,0.1,2.3
						c-5.5,0.1-11.6,2.3-13.3,11.3c-2.5,13.6,10.7,23.9,16.3,27.6l-0.9,0.8c0,0-4.1,4.1-2.1,5.7c0.8,0.6,1.8,0.5,2.7,0
						c0.7-0.3,1.4,0.2,1.3,1c-0.3,1.3-0.2,2.7,1,3.3c1,0.5,1.9,0.1,2.7-0.5c0.6-0.5,1.4-0.1,1.5,0.6c0.1,1.3,0.5,2.7,2,2.9
						c1.4,0.2,2.1-0.8,2.5-1.9c0.2-0.7,1.2-0.9,1.6-0.3c0.5,0.8,1.3,1.3,2.3,1.2c0.5-0.1,0.9-0.9,1.2-2c0.3-1.1,0.4-2.1,0.5-3.2
						c0.1-2.5-0.6-5-1.8-7.3l-2.9-5.8c0,0,6,5.5,14.4,8.1c6.1,2.4,12.8,4,19.7,4.9c0.1,0,0.2,0,0.3,0c0.8,0.1,1.5,0.2,2.3,0.2
						c0.4,0,0.7,0.1,1.1,0.1c0.5,0,1.1,0.1,1.6,0.1c0.4,0,0.9,0.1,1.3,0.1c0.6,0,1.1,0,1.7,0.1c0.4,0,0.8,0,1.2,0c1,0,1.9,0,2.9,0
						l0,0c0.9,0,1.9,0,2.8-0.1c0.4,0,0.8,0,1.2-0.1c0.6,0,1.1-0.1,1.7-0.1c0.4,0,0.9-0.1,1.3-0.1c0.5,0,1.1-0.1,1.6-0.2
						c0.3,0,0.7-0.1,1-0.1c0.8-0.1,1.5-0.2,2.3-0.3c0.1,0,0.2,0,0.2,0c6.9-1,13.5-2.8,19.5-5.4c8.3-2.9,14.1-8.5,14.1-8.5l-2.7,5.9
						c-1.1,2.3-1.7,4.8-1.5,7.3c0.1,1.1,0.3,2.1,0.6,3.2c0.3,1.1,0.7,1.9,1.2,2c1.1,0.1,1.8-0.5,2.3-1.3c0.4-0.6,1.3-0.5,1.6,0.2
						c0.4,1.2,1.2,2.1,2.6,1.9c1.4-0.3,1.9-1.6,1.9-2.9c0-0.7,0.9-1.1,1.4-0.7c0.9,0.7,1.9,1.1,3,0.2c0.9-0.7,1-1.9,0.6-3
						c-0.3-0.8,0.5-1.5,1.2-1.2c0.9,0.4,1.8,0.6,2.7-0.1c2-1.6-2.2-5.6-2.2-5.6L174,148C179.5,144.2,192.4,133.5,189.4,120z"/>
				</defs>
				<clipPath id="SVGID_00000041264014464884040100000002690699760040763580_">
					<use xlink:href="#SVGID_00000065070050946497052870000016321063019530688392_"  style="overflow:visible;"/>
				</clipPath>
				
					<ellipse transform="matrix(0.9999 -1.519974e-02 1.519974e-02 0.9999 -1.3806 2.5551)" style="clip-path:url(#SVGID_00000041264014464884040100000002690699760040763580_);fill:#C5DA8B;" cx="167.4" cy="92.1" rx="13.2" ry="13.2"/>
			</g>
			<g>
				<defs>
					<path id="SVGID_00000131332997660547206560000003446497695287058823_" d="M189,120.3c-1.8-8.9-7.9-11.1-13.4-11.1
						c0-0.8,0.1-1.5,0.1-2.3c0-12.3-3.7-23.7-10-33.2c-3.1-5.8-6.7-9.1-9.5-11.9c2.6-2.7,4-6.7,3.3-10.9c-0.9-5.1-5-9.2-10.1-10.1
						c-6.8-1.2-12.8,3.2-14.3,9.2c-6.1-2.1-12.6-3.2-19.4-3.2s-13.3,1.1-19.4,3.2c-1.6-6.1-7.5-10.4-14.3-9.2
						c-5.1,0.9-9.2,5-10.1,10.1c-0.7,4.2,0.7,8.1,3.3,10.9c-2.8,2.8-6.3,6.1-9.5,11.9c-6.3,9.5-10,20.9-10,33.2c0,0.8,0,1.5,0,2.3
						c-5.5,0-11.6,2.2-13.4,11.1c-2.7,13.6,10.3,24,15.9,27.8l-0.9,0.8c0,0-4.2,4-2.2,5.6c0.8,0.7,1.8,0.5,2.7,0.1
						c0.7-0.3,1.4,0.3,1.2,1c-0.3,1.3-0.3,2.7,0.9,3.3c1,0.5,1.9,0.1,2.7-0.5c0.6-0.5,1.4-0.1,1.4,0.6c0,1.4,0.5,2.7,1.9,2.9
						c1.4,0.2,2.1-0.7,2.6-1.9c0.2-0.7,1.2-0.9,1.6-0.2c0.5,0.8,1.2,1.4,2.3,1.2c0.5-0.1,0.9-0.9,1.2-2c0.3-1.1,0.5-2.1,0.5-3.2
						c0.1-2.5-0.5-5-1.6-7.3l-2.8-5.8c0,0,5.9,5.6,14.3,8.3c6,2.5,12.7,4.2,19.6,5.1c0.1,0,0.2,0,0.2,0c0.8,0.1,1.5,0.2,2.3,0.3
						c0.3,0,0.7,0.1,1.1,0.1c0.5,0.1,1.1,0.1,1.6,0.1c0.4,0,0.9,0.1,1.3,0.1c0.6,0,1.1,0.1,1.7,0.1c0.4,0,0.8,0,1.2,0.1
						c0.9,0,1.9,0.1,2.8,0.1l0,0c0.9,0,1.9,0,2.8-0.1c0.4,0,0.8,0,1.2-0.1c0.6,0,1.1-0.1,1.7-0.1c0.4,0,0.9-0.1,1.3-0.1
						c0.6,0,1.1-0.1,1.6-0.1c0.3,0,0.7-0.1,1-0.1c0.8-0.1,1.5-0.2,2.3-0.3c0.1,0,0.2,0,0.2,0c6.9-0.9,13.5-2.6,19.6-5.1
						c8.3-2.7,14.3-8.3,14.3-8.3l-2.8,5.8c-1.1,2.3-1.8,4.8-1.6,7.3c0.1,1.1,0.2,2.1,0.5,3.2c0.3,1.1,0.7,1.9,1.2,2
						c1.1,0.1,1.8-0.4,2.3-1.2c0.4-0.6,1.3-0.4,1.6,0.2c0.4,1.2,1.2,2.1,2.6,1.9c1.4-0.2,1.9-1.6,1.9-2.9c0-0.7,0.9-1.1,1.4-0.6
						c0.9,0.7,1.9,1.1,3,0.3c0.9-0.7,1.1-1.9,0.6-2.9c-0.3-0.8,0.5-1.5,1.2-1.1c0.9,0.4,1.8,0.6,2.7-0.1c2-1.6-2.1-5.6-2.1-5.6
						l-0.9-0.8C178.7,144.4,191.7,133.9,189,120.3z"/>
				</defs>
				<clipPath id="SVGID_00000029005976246372629450000015889780121792296070_">
					<use xlink:href="#SVGID_00000131332997660547206560000003446497695287058823_"  style="overflow:visible;"/>
				</clipPath>
				<path style="clip-path:url(#SVGID_00000029005976246372629450000015889780121792296070_);fill:#C5DA8B;" d="M73.7,80.2
					c0,2.7,2.2,4.9,4.9,4.9s4.9-2.2,4.9-4.9s-2.2-4.9-4.9-4.9S73.7,77.5,73.7,80.2z"/>
			</g>
			<g>
				<defs>
					<path id="SVGID_00000116206233497774215110000015208426940279253677_" d="M189,120.3c-1.8-8.9-7.9-11.1-13.4-11.1
						c0-0.8,0.1-1.5,0.1-2.3c0-12.3-3.7-23.7-10-33.2c-3.1-5.8-6.7-9.1-9.5-11.9c2.6-2.7,4-6.7,3.3-10.9c-0.9-5.1-5-9.2-10.1-10.1
						c-6.8-1.2-12.8,3.2-14.3,9.2c-6.1-2.1-12.6-3.2-19.4-3.2s-13.3,1.1-19.4,3.2c-1.6-6.1-7.5-10.4-14.3-9.2
						c-5.1,0.9-9.2,5-10.1,10.1c-0.7,4.2,0.7,8.1,3.3,10.9c-2.8,2.8-6.3,6.1-9.5,11.9c-6.3,9.5-10,20.9-10,33.2c0,0.8,0,1.5,0,2.3
						c-5.5,0-11.6,2.2-13.4,11.1c-2.7,13.6,10.3,24,15.9,27.8l-0.9,0.8c0,0-4.2,4-2.2,5.6c0.8,0.7,1.8,0.5,2.7,0.1
						c0.7-0.3,1.4,0.3,1.2,1c-0.3,1.3-0.3,2.7,0.9,3.3c1,0.5,1.9,0.1,2.7-0.5c0.6-0.5,1.4-0.1,1.4,0.6c0,1.4,0.5,2.7,1.9,2.9
						c1.4,0.2,2.1-0.7,2.6-1.9c0.2-0.7,1.2-0.9,1.6-0.2c0.5,0.8,1.2,1.4,2.3,1.2c0.5-0.1,0.9-0.9,1.2-2c0.3-1.1,0.5-2.1,0.5-3.2
						c0.1-2.5-0.5-5-1.6-7.3l-2.8-5.8c0,0,5.9,5.6,14.3,8.3c6,2.5,12.7,4.2,19.6,5.1c0.1,0,0.2,0,0.2,0c0.8,0.1,1.5,0.2,2.3,0.3
						c0.3,0,0.7,0.1,1.1,0.1c0.5,0.1,1.1,0.1,1.6,0.1c0.4,0,0.9,0.1,1.3,0.1c0.6,0,1.1,0.1,1.7,0.1c0.4,0,0.8,0,1.2,0.1
						c0.9,0,1.9,0.1,2.8,0.1l0,0c0.9,0,1.9,0,2.8-0.1c0.4,0,0.8,0,1.2-0.1c0.6,0,1.1-0.1,1.7-0.1c0.4,0,0.9-0.1,1.3-0.1
						c0.6,0,1.1-0.1,1.6-0.1c0.3,0,0.7-0.1,1-0.1c0.8-0.1,1.5-0.2,2.3-0.3c0.1,0,0.2,0,0.2,0c6.9-0.9,13.5-2.6,19.6-5.1
						c8.3-2.7,14.3-8.3,14.3-8.3l-2.8,5.8c-1.1,2.3-1.8,4.8-1.6,7.3c0.1,1.1,0.2,2.1,0.5,3.2c0.3,1.1,0.7,1.9,1.2,2
						c1.1,0.1,1.8-0.4,2.3-1.2c0.4-0.6,1.3-0.4,1.6,0.2c0.4,1.2,1.2,2.1,2.6,1.9c1.4-0.2,1.9-1.6,1.9-2.9c0-0.7,0.9-1.1,1.4-0.6
						c0.9,0.7,1.9,1.1,3,0.3c0.9-0.7,1.1-1.9,0.6-2.9c-0.3-0.8,0.5-1.5,1.2-1.1c0.9,0.4,1.8,0.6,2.7-0.1c2-1.6-2.1-5.6-2.1-5.6
						l-0.9-0.8C178.7,144.4,191.7,133.9,189,120.3z"/>
				</defs>
				<clipPath id="SVGID_00000132056564374012379180000017138857683601453735_">
					<use xlink:href="#SVGID_00000116206233497774215110000015208426940279253677_"  style="overflow:visible;"/>
				</clipPath>
				<path style="clip-path:url(#SVGID_00000132056564374012379180000017138857683601453735_);fill:#C5DA8B;" d="M139.8,90.4
					c0,2.7,2.2,4.9,4.9,4.9s4.9-2.2,4.9-4.9s-2.2-4.9-4.9-4.9C142,85.5,139.8,87.7,139.8,90.4z"/>
			</g>
			<g>
				<defs>
					<path id="SVGID_00000170256630275610579340000009337823269932437920_" d="M189,120.3c-1.8-8.9-7.9-11.1-13.4-11.1
						c0-0.8,0.1-1.5,0.1-2.3c0-12.3-3.7-23.7-10-33.2c-3.1-5.8-6.7-9.1-9.5-11.9c2.6-2.7,4-6.7,3.3-10.9c-0.9-5.1-5-9.2-10.1-10.1
						c-6.8-1.2-12.8,3.2-14.3,9.2c-6.1-2.1-12.6-3.2-19.4-3.2s-13.3,1.1-19.4,3.2c-1.6-6.1-7.5-10.4-14.3-9.2
						c-5.1,0.9-9.2,5-10.1,10.1c-0.7,4.2,0.7,8.1,3.3,10.9c-2.8,2.8-6.3,6.1-9.5,11.9c-6.3,9.5-10,20.9-10,33.2c0,0.8,0,1.5,0,2.3
						c-5.5,0-11.6,2.2-13.4,11.1c-2.7,13.6,10.3,24,15.9,27.8l-0.9,0.8c0,0-4.2,4-2.2,5.6c0.8,0.7,1.8,0.5,2.7,0.1
						c0.7-0.3,1.4,0.3,1.2,1c-0.3,1.3-0.3,2.7,0.9,3.3c1,0.5,1.9,0.1,2.7-0.5c0.6-0.5,1.4-0.1,1.4,0.6c0,1.4,0.5,2.7,1.9,2.9
						c1.4,0.2,2.1-0.7,2.6-1.9c0.2-0.7,1.2-0.9,1.6-0.2c0.5,0.8,1.2,1.4,2.3,1.2c0.5-0.1,0.9-0.9,1.2-2c0.3-1.1,0.5-2.1,0.5-3.2
						c0.1-2.5-0.5-5-1.6-7.3l-2.8-5.8c0,0,5.9,5.6,14.3,8.3c6,2.5,12.7,4.2,19.6,5.1c0.1,0,0.2,0,0.2,0c0.8,0.1,1.5,0.2,2.3,0.3
						c0.3,0,0.7,0.1,1.1,0.1c0.5,0.1,1.1,0.1,1.6,0.1c0.4,0,0.9,0.1,1.3,0.1c0.6,0,1.1,0.1,1.7,0.1c0.4,0,0.8,0,1.2,0.1
						c0.9,0,1.9,0.1,2.8,0.1l0,0c0.9,0,1.9,0,2.8-0.1c0.4,0,0.8,0,1.2-0.1c0.6,0,1.1-0.1,1.7-0.1c0.4,0,0.9-0.1,1.3-0.1
						c0.6,0,1.1-0.1,1.6-0.1c0.3,0,0.7-0.1,1-0.1c0.8-0.1,1.5-0.2,2.3-0.3c0.1,0,0.2,0,0.2,0c6.9-0.9,13.5-2.6,19.6-5.1
						c8.3-2.7,14.3-8.3,14.3-8.3l-2.8,5.8c-1.1,2.3-1.8,4.8-1.6,7.3c0.1,1.1,0.2,2.1,0.5,3.2c0.3,1.1,0.7,1.9,1.2,2
						c1.1,0.1,1.8-0.4,2.3-1.2c0.4-0.6,1.3-0.4,1.6,0.2c0.4,1.2,1.2,2.1,2.6,1.9c1.4-0.2,1.9-1.6,1.9-2.9c0-0.7,0.9-1.1,1.4-0.6
						c0.9,0.7,1.9,1.1,3,0.3c0.9-0.7,1.1-1.9,0.6-2.9c-0.3-0.8,0.5-1.5,1.2-1.1c0.9,0.4,1.8,0.6,2.7-0.1c2-1.6-2.1-5.6-2.1-5.6
						l-0.9-0.8C178.7,144.4,191.7,133.9,189,120.3z"/>
				</defs>
				<clipPath id="SVGID_00000049221643270759657270000011015713309791004095_">
					<use xlink:href="#SVGID_00000170256630275610579340000009337823269932437920_"  style="overflow:visible;"/>
				</clipPath>
				<path style="clip-path:url(#SVGID_00000049221643270759657270000011015713309791004095_);fill:#C5DA8B;" d="M145.6,77.2
					c0,2.7,2.2,4.9,4.9,4.9s4.9-2.2,4.9-4.9s-2.2-4.9-4.9-4.9C147.8,72.3,145.6,74.5,145.6,77.2z"/>
			</g>
			<g>
				<path id="XMLID_00000023281019308766927750000008475463881756454821_" class="st7" d="M189,120.3c-1.8-8.9-7.9-11.1-13.4-11.1
					c0-0.8,0.1-1.5,0.1-2.3c0-12.3-3.7-23.7-10-33.2c-3.1-5.8-6.7-9.1-9.5-11.9c2.6-2.7,4-6.7,3.3-10.9c-0.9-5.1-5-9.2-10.1-10.1
					c-6.8-1.2-12.8,3.2-14.3,9.2c-6.1-2.1-12.6-3.2-19.4-3.2s-13.3,1.1-19.4,3.2c-1.6-6.1-7.5-10.4-14.3-9.2
					c-5.1,0.9-9.2,5-10.1,10.1c-0.7,4.2,0.7,8.1,3.3,10.9c-2.8,2.8-6.3,6.1-9.5,11.9c-6.3,9.5-10,20.9-10,33.2c0,0.8,0,1.5,0,2.3
					c-5.5,0-11.6,2.2-13.4,11.1c-2.7,13.6,10.3,24,15.9,27.8l-0.9,0.8c0,0-4.2,4-2.2,5.6c0.8,0.7,1.8,0.5,2.7,0.1
					c0.7-0.3,1.4,0.3,1.2,1c-0.3,1.3-0.3,2.7,0.9,3.3c1,0.5,1.9,0.1,2.7-0.5c0.6-0.5,1.4-0.1,1.4,0.6c0,1.4,0.5,2.7,1.9,2.9
					c1.4,0.2,2.1-0.7,2.6-1.9c0.2-0.7,1.2-0.9,1.6-0.2c0.5,0.8,1.2,1.4,2.3,1.2c0.5-0.1,0.9-0.9,1.2-2c0.3-1.1,0.5-2.1,0.5-3.2
					c0.1-2.5-0.5-5-1.6-7.3l-2.8-5.8c0,0,5.9,5.6,14.3,8.3c6,2.5,12.7,4.2,19.6,5.1c0.1,0,0.2,0,0.2,0c0.8,0.1,1.5,0.2,2.3,0.3
					c0.3,0,0.7,0.1,1.1,0.1c0.5,0.1,1.1,0.1,1.6,0.1c0.4,0,0.9,0.1,1.3,0.1c0.6,0,1.1,0.1,1.7,0.1c0.4,0,0.8,0,1.2,0.1
					c0.9,0,1.9,0.1,2.8,0.1l0,0c0.9,0,1.9,0,2.8-0.1c0.4,0,0.8,0,1.2-0.1c0.6,0,1.1-0.1,1.7-0.1c0.4,0,0.9-0.1,1.3-0.1
					c0.6,0,1.1-0.1,1.6-0.1c0.3,0,0.7-0.1,1-0.1c0.8-0.1,1.5-0.2,2.3-0.3c0.1,0,0.2,0,0.2,0c6.9-0.9,13.5-2.6,19.6-5.1
					c8.3-2.7,14.3-8.3,14.3-8.3l-2.8,5.8c-1.1,2.3-1.8,4.8-1.6,7.3c0.1,1.1,0.2,2.1,0.5,3.2c0.3,1.1,0.7,1.9,1.2,2
					c1.1,0.1,1.8-0.4,2.3-1.2c0.4-0.6,1.3-0.4,1.6,0.2c0.4,1.2,1.2,2.1,2.6,1.9c1.4-0.2,1.9-1.6,1.9-2.9c0-0.7,0.9-1.1,1.4-0.6
					c0.9,0.7,1.9,1.1,3,0.3c0.9-0.7,1.1-1.9,0.6-2.9c-0.3-0.8,0.5-1.5,1.2-1.1c0.9,0.4,1.8,0.6,2.7-0.1c2-1.6-2.1-5.6-2.1-5.6
					l-0.9-0.8C178.7,144.4,191.7,133.9,189,120.3z"/>
			</g>
		</g>
		<path class="st8" d="M77.7,53.3c0,3.5,2.9,6.4,6.4,6.4s6.4-2.9,6.4-6.4s-2.9-6.4-6.4-6.4C80.6,46.9,77.7,49.7,77.7,53.3z"/>
		<path class="st9" d="M80.1,51.7c0,1.1,0.9,2.1,2.1,2.1s2.1-0.9,2.1-2.1c0-1.1-0.9-2.1-2.1-2.1C81.1,49.6,80.1,50.6,80.1,51.7z"/>
		<path class="st8" d="M140.8,53.3c0,3.5,2.9,6.4,6.4,6.4s6.4-2.9,6.4-6.4s-2.9-6.4-6.4-6.4S140.8,49.7,140.8,53.3z"/>
		<path class="st9" d="M143.2,51.7c0,1.1,0.9,2.1,2.1,2.1s2.1-0.9,2.1-2.1c0-1.1-0.9-2.1-2.1-2.1C144.1,49.6,143.2,50.6,143.2,51.7z
			"/>
		<path class="st10" d="M73.9,122.2c0,16.8,18.7,30.3,41.7,30.3s41.7-13.6,41.7-30.3s-18.7-20.8-41.7-20.8S73.9,105.5,73.9,122.2z"
			/>
		<g>
			<path class="st11" d="M79.9,64.5c0,1.8,2.9,3.4,6.6,3.4s6.6-1.5,6.6-3.4c0-1.8-2.9-3.4-6.6-3.4S79.9,62.7,79.9,64.5z"/>
			<path class="st11" d="M138.1,64.5c0,1.8,2.9,3.4,6.6,3.4s6.6-1.5,6.6-3.4c0-1.8-2.9-3.4-6.6-3.4S138.1,62.7,138.1,64.5z"/>
		</g>
		<path class="st12" d="M63.4,114.9L83,161.4l-0.2,0.2c0,0-3.5,3.4-1.8,4.8c0.7,0.6,1.5,0.4,2.3,0.1c0.6-0.3,1.2,0.2,1.1,0.8
			c-0.2,1.1-0.2,2.3,0.8,2.8c0.8,0.4,1.7,0.1,2.3-0.4c0.5-0.4,1.2-0.1,1.2,0.6c0,1.1,0.4,2.3,1.6,2.5c1.2,0.2,1.8-0.6,2.2-1.6
			c0.2-0.6,1-0.7,1.3-0.2c0.4,0.6,1.1,1.1,1.9,1c0.4-0.1,0.8-0.8,1-1.7c0.5-1.6,0.6-3.3,0.3-5l0,0l-6.8-64.5"/>
		<path class="st12" d="M167.4,114.9l-19.6,46.5l0.2,0.2c0,0,3.5,3.4,1.8,4.8c-0.7,0.6-1.5,0.4-2.3,0.1c-0.6-0.3-1.2,0.2-1.1,0.8
			c0.2,1.1,0.2,2.3-0.8,2.8c-0.9,0.4-1.6,0.1-2.3-0.4c-0.5-0.4-1.2-0.1-1.2,0.6c0,1.1-0.4,2.3-1.6,2.5c-1.2,0.2-1.8-0.6-2.2-1.6
			c-0.2-0.6-1-0.7-1.3-0.2c-0.4,0.6-1.1,1.1-1.9,1c-0.4-0.1-0.8-0.8-1-1.7c-0.5-1.6-0.6-3.3-0.4-5l0,0l6.9-64.7"/>
		<path class="st7" d="M54.7,120.5c0,0,2.1,11.5,14.9,22.3"/>
		<path class="st7" d="M176.6,120.5c0,0-2.1,11.5-14.9,22.3"/>
		<path class="st8" d="M111.3,51.7c0,0.4,0.3,0.7,0.7,0.7s0.7-0.3,0.7-0.7S112.4,51,112,51C111.7,51,111.3,51.3,111.3,51.7z"/>
		<path class="st8" d="M118.5,51.7c0,0.4,0.3,0.7,0.7,0.7s0.7-0.3,0.7-0.7s-0.3-0.7-0.7-0.7C118.8,51,118.5,51.3,118.5,51.7z"/>
		<g>
			<g>
				<path id="XMLID_56_" class="st13" d="M105.7,66c0,5.5,4.5,7.2,10,7.2s10-1.7,10-7.2s-4.5-10-10-10S105.7,60.5,105.7,66z"/>
			</g>
			<g>
				<defs>
					<path id="SVGID_00000026157048796636450700000016709840751165661586_" d="M105.7,66c0,5.5,4.5,7.2,10,7.2s10-1.7,10-7.2
						s-4.5-10-10-10S105.7,60.5,105.7,66z"/>
				</defs>
				<clipPath id="SVGID_00000178207195393611537340000011738162450447587504_">
					<use xlink:href="#SVGID_00000026157048796636450700000016709840751165661586_"  style="overflow:visible;"/>
				</clipPath>
				<path style="clip-path:url(#SVGID_00000178207195393611537340000011738162450447587504_);fill:#FF666D;" d="M102.2,67.9
					c0,0,12.1-5.3,27.7,0c0,5.9,0,7.1,0,7.1h-27.7V67.9z"/>
			</g>
			<g>
				<path id="XMLID_00000156556326920880932230000017640232032924570255_" class="st7" d="M105.7,66c0,5.5,4.5,7.2,10,7.2
					s10-1.7,10-7.2s-4.5-10-10-10S105.7,60.5,105.7,66z"/>
			</g>
		</g>
	</g>
</g>
</svg>
